<svg xmlns="http://www.w3.org/2000/svg" width="359.966" height="359.66" viewBox="0 0 269.975 269.745"><style>@media (prefers-color-scheme: dark ) { path { fill: #fff; } }</style><path d="M268.63 25.242a27.184 27.184 0 0 0-23.676-23.68A210.063 210.063 0 0 0 220.23 0a220.93 220.93 0 0 0-34.43 2.746 113.642 113.642 0 0 0 29.645 51.746 113.658 113.658 0 0 0 51.766 29.617 218.653 218.653 0 0 0 1.418-58.867z"/><path d="M171.88 5.402A220.563 220.563 0 0 0 64.54 64.574a220.567 220.567 0 0 0-59.173 107.34 127.412 127.412 0 0 1 59.156 33.492 127.41 127.41 0 0 1 33.523 59.141A220.168 220.168 0 0 0 264.561 98.032a127.46 127.46 0 0 1-59.16-33.492 127.468 127.468 0 0 1-33.52-59.14zm16.671 86.051-15.39 15.391 9.945 9.992h-.004a7.045 7.045 0 0 1 2.097 5.02 7.045 7.045 0 0 1-2.097 5.02 7.153 7.153 0 0 1-5.02 2.085 7.06 7.06 0 0 1-5.21-2.086l-9.993-9.992-9.473 9.473 9.946 9.992a7.045 7.045 0 0 1 2.097 5.02 7.045 7.045 0 0 1-2.097 5.02 7.104 7.104 0 0 1-10.04 0l-9.945-9.993-9.472 9.473 10.562 9.707a7.052 7.052 0 0 1 0 10.039 7.104 7.104 0 0 1-10.04 0l-9.945-9.993-9.472 9.473 9.945 9.945a7.103 7.103 0 0 1 0 10.086 7.016 7.016 0 0 1-5.02 2.04 7.117 7.117 0 0 1-5.02-2.04l-9.944-9.992-13.543 13.543v.004a7.062 7.062 0 0 1-5.024 2.082 7.103 7.103 0 0 1-6.555-4.386 7.109 7.109 0 0 1 1.536-7.739l13.543-13.543-9.993-9.945h.004a7.146 7.146 0 0 1 0-10.04 7.052 7.052 0 0 1 10.039 0l9.993 9.946 9.472-9.472-9.992-9.946a7.146 7.146 0 0 1 0-10.039 7.052 7.052 0 0 1 10.039 0l9.992 9.946 9.473-9.473-9.945-9.946a7.146 7.146 0 0 1 0-10.039 7.045 7.045 0 0 1 5.02-2.097c1.886 0 3.695.754 5.019 2.097l9.707 9.946 9.472-9.473-10.133-9.473a7.101 7.101 0 0 1 .172-9.863 7.106 7.106 0 0 1 9.868-.176l9.945 9.946 15.39-15.391a7.113 7.113 0 0 1 10.063-.024 7.113 7.113 0 0 1 .023 10.062z"/><path d="M2.72 185.882a220.391 220.391 0 0 0-1.376 58.82A27.27 27.27 0 0 0 9.125 260.6a27.272 27.272 0 0 0 15.898 7.781 220.387 220.387 0 0 0 58.82-1.328 113.24 113.24 0 0 0-81.125-81.172z"/></svg>
